<mxfile host="app.diagrams.net" agent="Mozilla/5.0 (Windows NT 10.0; Win64; x64) AppleWebKit/537.36 (KHTML, like Gecko) Chrome/138.0.0.0 YaBrowser/25.8.0.0 Safari/537.36" version="28.2.8">
  <diagram name="Страница — 1" id="0e2yT4qeQ546by1zYXs4">
    <mxGraphModel dx="1869" dy="602" grid="1" gridSize="10" guides="1" tooltips="1" connect="1" arrows="1" fold="1" page="1" pageScale="1" pageWidth="827" pageHeight="1169" math="0" shadow="0">
      <root>
        <mxCell id="0" />
        <mxCell id="1" parent="0" />
        <mxCell id="ezyDCEkJher1e5ASHjJT-10" value="Сертификат" style="rounded=1;whiteSpace=wrap;html=1;" vertex="1" parent="1">
          <mxGeometry x="-770" y="420" width="120" height="60" as="geometry" />
        </mxCell>
        <mxCell id="ezyDCEkJher1e5ASHjJT-11" value="Камень" style="rounded=1;whiteSpace=wrap;html=1;" vertex="1" parent="1">
          <mxGeometry x="-560" y="410" width="120" height="60" as="geometry" />
        </mxCell>
        <mxCell id="ezyDCEkJher1e5ASHjJT-12" value="Штрихкод-сканер&lt;div&gt;&amp;lt;&amp;lt;device&amp;gt;&amp;gt;&lt;/div&gt;" style="rounded=1;whiteSpace=wrap;html=1;" vertex="1" parent="1">
          <mxGeometry x="-770" y="80" width="120" height="60" as="geometry" />
        </mxCell>
        <mxCell id="ezyDCEkJher1e5ASHjJT-14" value="IoT-сенсор&lt;div&gt;&amp;lt;&amp;lt;device&amp;gt;&amp;gt;&lt;/div&gt;" style="rounded=1;whiteSpace=wrap;html=1;" vertex="1" parent="1">
          <mxGeometry x="-770" y="170" width="120" height="60" as="geometry" />
        </mxCell>
        <mxCell id="ezyDCEkJher1e5ASHjJT-15" value="RFID-ридер&lt;div&gt;&amp;lt;&amp;lt;device&amp;gt;&amp;gt;&lt;/div&gt;" style="rounded=1;whiteSpace=wrap;html=1;" vertex="1" parent="1">
          <mxGeometry x="-770" y="270" width="120" height="60" as="geometry" />
        </mxCell>
        <mxCell id="ezyDCEkJher1e5ASHjJT-16" value="Mobile App&lt;div&gt;&amp;lt;&amp;lt;component&amp;gt;&amp;gt;&lt;/div&gt;" style="rounded=1;whiteSpace=wrap;html=1;" vertex="1" parent="1">
          <mxGeometry x="-530" y="110" width="120" height="60" as="geometry" />
        </mxCell>
        <mxCell id="ezyDCEkJher1e5ASHjJT-17" value="RFID&lt;div&gt;Middleware&lt;/div&gt;&lt;div&gt;&amp;lt;&amp;lt;component&amp;gt;&amp;gt;&lt;/div&gt;" style="rounded=1;whiteSpace=wrap;html=1;" vertex="1" parent="1">
          <mxGeometry x="-530" y="250" width="120" height="60" as="geometry" />
        </mxCell>
        <mxCell id="ezyDCEkJher1e5ASHjJT-18" value="Edge&lt;div&gt;Gateway&lt;/div&gt;&lt;div&gt;&amp;lt;&amp;lt;component&amp;gt;&amp;gt;&lt;/div&gt;" style="rounded=1;whiteSpace=wrap;html=1;" vertex="1" parent="1">
          <mxGeometry x="-290" y="230" width="120" height="60" as="geometry" />
        </mxCell>
      </root>
    </mxGraphModel>
  </diagram>
</mxfile>
